<svg width="3601" height="951" viewBox="0 0 3601 951" fill="none" xmlns="http://www.w3.org/2000/svg">
<path d="M1139.39 474.278V698H1049.41V316.182H1135.42V381.061H1139.89C1148.67 359.683 1162.68 342.697 1181.9 330.102C1201.29 317.508 1225.24 311.21 1253.74 311.21C1280.09 311.21 1303.04 316.845 1322.6 328.114C1342.32 339.383 1357.56 355.706 1368.34 377.084C1379.27 398.462 1384.66 424.397 1384.49 454.889V698H1294.51V468.81C1294.51 443.289 1287.88 423.32 1274.62 408.902C1261.53 394.484 1243.38 387.276 1220.18 387.276C1204.44 387.276 1190.44 390.756 1178.17 397.716C1166.07 404.51 1156.55 414.371 1149.59 427.297C1142.79 440.223 1139.39 455.884 1139.39 474.278ZM1642.02 849.136C1609.71 849.136 1581.95 844.745 1558.75 835.962C1535.55 827.344 1516.9 815.744 1502.82 801.161C1488.73 786.577 1478.95 770.42 1473.48 752.688L1554.52 733.05C1558.17 740.507 1563.47 747.882 1570.43 755.173C1577.39 762.631 1586.75 768.762 1598.52 773.568C1610.45 778.54 1625.45 781.026 1643.51 781.026C1669.03 781.026 1690.16 774.811 1706.9 762.382C1723.64 750.119 1732.01 729.901 1732.01 701.729V629.392H1727.53C1722.89 638.672 1716.1 648.201 1707.15 657.979C1698.37 667.756 1686.68 675.959 1672.1 682.588C1657.68 689.217 1639.54 692.531 1617.66 692.531C1588.33 692.531 1561.73 685.654 1537.87 671.899C1514.17 657.979 1495.28 637.264 1481.19 609.754C1467.27 582.079 1460.31 547.444 1460.31 505.848C1460.31 463.921 1467.27 428.54 1481.19 399.705C1495.28 370.704 1514.25 348.746 1538.12 333.831C1561.98 318.75 1588.58 311.21 1617.91 311.21C1640.28 311.21 1658.68 315.022 1673.09 322.645C1687.68 330.102 1699.28 339.134 1707.89 349.74C1716.51 360.18 1723.06 370.041 1727.53 379.321H1732.5V316.182H1821.25V704.214C1821.25 736.861 1813.46 763.874 1797.88 785.251C1782.3 806.629 1761.01 822.621 1734 833.227C1706.98 843.833 1676.33 849.136 1642.02 849.136ZM1642.77 621.935C1661.82 621.935 1678.07 617.295 1691.49 608.014C1704.91 598.734 1715.1 585.393 1722.06 567.993C1729.02 550.592 1732.5 529.712 1732.5 505.351C1732.5 481.321 1729.02 460.275 1722.06 442.212C1715.27 424.148 1705.16 410.145 1691.74 400.202C1678.48 390.093 1662.16 385.038 1642.77 385.038C1622.71 385.038 1605.98 390.259 1592.55 400.699C1579.13 411.139 1569.02 425.474 1562.23 443.703C1555.43 461.767 1552.04 482.316 1552.04 505.351C1552.04 528.717 1555.43 549.184 1562.23 566.75C1569.19 584.151 1579.38 597.74 1592.8 607.517C1606.39 617.129 1623.05 621.935 1642.77 621.935ZM2003.46 474.278V698H1913.47V188.909H2001.47V381.061H2005.94C2014.89 359.518 2028.73 342.531 2047.45 330.102C2066.35 317.508 2090.38 311.21 2119.54 311.21C2146.06 311.21 2169.18 316.762 2188.9 327.865C2208.62 338.968 2223.86 355.209 2234.63 376.587C2245.57 397.964 2251.04 424.065 2251.04 454.889V698H2161.06V468.81C2161.06 443.123 2154.43 423.154 2141.17 408.902C2128.08 394.484 2109.68 387.276 2085.98 387.276C2070.08 387.276 2055.82 390.756 2043.23 397.716C2030.8 404.51 2021.02 414.371 2013.9 427.297C2006.94 440.223 2003.46 455.884 2003.46 474.278ZM2346.74 698V188.909H2436.73V379.321H2440.46C2445.1 370.041 2451.64 360.18 2460.1 349.74C2468.55 339.134 2479.98 330.102 2494.4 322.645C2508.82 315.022 2527.21 311.21 2549.59 311.21C2579.08 311.21 2605.68 318.75 2629.38 333.831C2653.24 348.746 2672.13 370.869 2686.06 400.202C2700.14 429.368 2707.18 465.164 2707.18 507.588C2707.18 549.515 2700.31 585.145 2686.55 614.477C2672.8 643.81 2654.07 666.182 2630.37 681.594C2606.68 697.006 2579.83 704.712 2549.83 704.712C2527.96 704.712 2509.81 701.066 2495.39 693.774C2480.98 686.482 2469.38 677.699 2460.59 667.425C2451.98 656.984 2445.26 647.124 2440.46 637.844H2435.24V698H2346.74ZM2434.99 507.091C2434.99 531.783 2438.47 553.41 2445.43 571.97C2452.56 590.531 2462.75 605.031 2476.01 615.472C2489.43 625.746 2505.67 630.884 2524.73 630.884C2544.61 630.884 2561.27 625.58 2574.69 614.974C2588.12 604.203 2598.22 589.536 2605.02 570.976C2611.98 552.25 2615.46 530.955 2615.46 507.091C2615.46 483.393 2612.06 462.347 2605.27 443.952C2598.47 425.557 2588.36 411.139 2574.94 400.699C2561.52 390.259 2544.78 385.038 2524.73 385.038C2505.5 385.038 2489.18 390.093 2475.76 400.202C2462.33 410.311 2452.14 424.48 2445.18 442.709C2438.39 460.938 2434.99 482.399 2434.99 507.091ZM2783.69 698V316.182H2870.94V379.818H2874.91C2881.87 357.777 2893.81 340.791 2910.71 328.859C2927.78 316.762 2947.25 310.713 2969.13 310.713C2974.1 310.713 2979.65 310.962 2985.78 311.459C2992.08 311.79 2997.3 312.37 3001.44 313.199V395.976C2997.63 394.65 2991.58 393.49 2983.29 392.496C2975.17 391.336 2967.3 390.756 2959.68 390.756C2943.27 390.756 2928.52 394.319 2915.43 401.445C2902.51 408.405 2892.31 418.099 2884.86 430.528C2877.4 442.957 2873.67 457.292 2873.67 473.533V698H2783.69ZM3151.21 188.909V698H3061.22V188.909H3151.21ZM3299.67 841.182C3287.41 841.182 3276.06 840.188 3265.62 838.199C3255.34 836.376 3247.14 834.222 3241.01 831.736L3261.89 761.636C3274.98 765.448 3286.67 767.271 3296.94 767.105C3307.21 766.939 3316.25 763.708 3324.03 757.411C3331.99 751.279 3338.7 741.004 3344.17 726.587L3351.88 705.955L3213.42 316.182H3308.87L3396.87 604.534H3400.85L3489.09 316.182H3584.79L3431.92 744.236C3424.79 764.454 3415.35 781.771 3403.58 796.189C3391.81 810.772 3377.4 821.875 3360.33 829.499C3343.42 837.287 3323.21 841.182 3299.67 841.182Z" fill="#2374AB"/>
<path d="M571.567 326.305C571.567 423.81 619.681 816.636 632.214 877.573C633.2 878.554 634.185 879.534 635.17 880.515C635.17 888.382 634.091 886.699 632.214 877.573C583.721 829.328 534.724 781.28 485.935 732.92C439.933 686.925 394.255 640.39 348.254 594.395C320.934 567.078 294.261 538.466 265.321 513.417C242.248 492.539 213.899 478.373 183.348 472.454C152.797 466.535 121.209 469.089 92.0055 479.838C63.1426 489.218 36.6292 504.682 14.2564 525.186C7.23733 531.664 3.45786 527.993 1.83808 521.083C0.573993 516.145 -0.0430868 511.064 0.00233639 505.967C0.00233639 391.411 0.00233638 276.747 0.542261 161.867C0.560585 135.848 7.0553 110.243 19.4408 87.3602C31.8263 64.4775 49.7131 45.0368 71.4884 30.7911C106.513 5.5411 150.124 -4.78749 192.756 2.07103C231.441 7.19389 267.566 24.2535 296.097 50.8735C342.963 97.0847 388.748 144.268 434.534 190.587C480.32 236.906 525.889 280.634 571.567 326.305Z" fill="#79ADDC"/>
<rect x="0.00231934" y="599.912" width="351" height="351" rx="175.5" fill="#2374AB"/>
<path d="M381.603 624.607C381.603 527.102 333.489 134.275 320.956 73.3381C319.97 72.3577 318.985 71.3771 318 70.3965C318 62.53 319.079 64.2127 320.956 73.3381C369.449 121.584 418.446 169.632 467.235 217.992C513.237 263.987 558.914 310.522 604.916 356.517C632.236 383.833 658.909 412.445 687.849 437.495C710.922 458.372 739.271 472.538 769.822 478.457C800.373 484.376 831.961 481.823 861.164 471.073C890.027 461.694 916.541 446.23 938.914 425.726C945.933 419.248 949.712 422.919 951.332 429.829C952.596 434.767 953.213 439.848 953.168 444.945C953.168 559.501 953.168 674.165 952.628 789.045C952.609 815.064 946.115 840.669 933.729 863.551C921.344 886.434 903.457 905.875 881.682 920.121C846.657 945.371 803.046 955.699 760.414 948.841C721.729 943.718 685.604 926.658 657.073 900.038C610.207 853.827 564.422 806.644 518.636 760.325C472.85 714.006 427.281 670.278 381.603 624.607Z" fill="#79ADDC"/>
<rect x="953.168" y="351" width="351" height="351" rx="175.5" transform="rotate(180 953.168 351)" fill="#2374AB"/>
</svg>
