<svg width="954" height="951" viewBox="0 0 954 951" fill="none" xmlns="http://www.w3.org/2000/svg">
<path d="M571.567 326.305C571.567 423.81 619.681 816.636 632.214 877.573C633.2 878.554 634.185 879.534 635.17 880.515C635.17 888.382 634.091 886.699 632.214 877.573C583.721 829.328 534.724 781.28 485.935 732.92C439.933 686.925 394.255 640.39 348.254 594.395C320.934 567.078 294.261 538.466 265.321 513.417C242.248 492.539 213.899 478.373 183.348 472.454C152.797 466.535 121.209 469.089 92.0055 479.838C63.1426 489.218 36.6292 504.682 14.2564 525.186C7.23733 531.664 3.45786 527.993 1.83808 521.083C0.573993 516.145 -0.0430868 511.064 0.00233639 505.967C0.00233639 391.411 0.00233638 276.747 0.542261 161.867C0.560585 135.848 7.0553 110.243 19.4408 87.3602C31.8263 64.4775 49.7131 45.0368 71.4884 30.7911C106.513 5.5411 150.124 -4.78749 192.756 2.07103C231.441 7.19389 267.566 24.2535 296.097 50.8735C342.963 97.0847 388.748 144.268 434.534 190.587C480.32 236.906 525.889 280.634 571.567 326.305Z" fill="#79ADDC"/>
<rect x="0.00231934" y="599.912" width="351" height="351" rx="175.5" fill="#2374AB"/>
<path d="M381.603 624.607C381.603 527.102 333.489 134.275 320.956 73.3381C319.97 72.3577 318.985 71.3771 318 70.3965C318 62.53 319.079 64.2127 320.956 73.3381C369.449 121.584 418.446 169.632 467.235 217.992C513.237 263.987 558.914 310.522 604.916 356.517C632.236 383.833 658.909 412.445 687.849 437.495C710.922 458.372 739.271 472.538 769.822 478.457C800.373 484.376 831.961 481.823 861.164 471.073C890.027 461.694 916.541 446.23 938.914 425.726C945.933 419.248 949.712 422.919 951.332 429.829C952.596 434.767 953.213 439.848 953.168 444.945C953.168 559.501 953.168 674.165 952.628 789.045C952.609 815.064 946.115 840.669 933.729 863.551C921.344 886.434 903.457 905.875 881.682 920.121C846.657 945.371 803.046 955.699 760.414 948.841C721.729 943.718 685.604 926.658 657.073 900.038C610.207 853.827 564.422 806.644 518.636 760.325C472.85 714.006 427.281 670.278 381.603 624.607Z" fill="#79ADDC"/>
<rect x="953.168" y="351" width="351" height="351" rx="175.5" transform="rotate(180 953.168 351)" fill="#2374AB"/>
</svg>
